<svg width="50" height="50" viewBox="0 0 50 50" fill="none" xmlns="http://www.w3.org/2000/svg">
<mask id="mask0_290_116" style="mask-type:alpha" maskUnits="userSpaceOnUse" x="0" y="0" width="50" height="50">
<rect width="50" height="50" fill="#D9D9D9"/>
</mask>
<g mask="url(#mask0_290_116)">
<path d="M2.08301 41.667V35.8336C2.08301 34.6531 2.38683 33.568 2.99447 32.5784C3.60211 31.5888 4.4094 30.8336 5.41634 30.3128C7.56912 29.2364 9.75662 28.4291 11.9788 27.8909C14.2011 27.3527 16.458 27.0836 18.7497 27.0836C21.0413 27.0836 23.2983 27.3527 25.5205 27.8909C27.7427 28.4291 29.9302 29.2364 32.083 30.3128C33.09 30.8336 33.8972 31.5888 34.5049 32.5784C35.1125 33.568 35.4163 34.6531 35.4163 35.8336V41.667H2.08301ZM39.583 41.667V35.417C39.583 33.8892 39.1577 32.4222 38.307 31.0159C37.4563 29.6097 36.2497 28.4031 34.6872 27.3961C36.458 27.6045 38.1247 27.9604 39.6872 28.4638C41.2497 28.9673 42.708 29.5836 44.0622 30.3128C45.3122 31.0072 46.267 31.7798 46.9268 32.6305C47.5865 33.4812 47.9163 34.41 47.9163 35.417V41.667H39.583ZM18.7497 25.0003C16.458 25.0003 14.4962 24.1843 12.8643 22.5524C11.2323 20.9204 10.4163 18.9586 10.4163 16.667C10.4163 14.3753 11.2323 12.4135 12.8643 10.7815C14.4962 9.14959 16.458 8.33362 18.7497 8.33362C21.0413 8.33362 23.0031 9.14959 24.6351 10.7815C26.267 12.4135 27.083 14.3753 27.083 16.667C27.083 18.9586 26.267 20.9204 24.6351 22.5524C23.0031 24.1843 21.0413 25.0003 18.7497 25.0003ZM39.583 16.667C39.583 18.9586 38.767 20.9204 37.1351 22.5524C35.5032 24.1843 33.5413 25.0003 31.2497 25.0003C30.8677 25.0003 30.3816 24.9569 29.7913 24.8701C29.2011 24.7833 28.715 24.6878 28.333 24.5836C29.2705 23.4725 29.991 22.2399 30.4945 20.8857C30.9979 19.5315 31.2497 18.1253 31.2497 16.667C31.2497 15.2086 30.9979 13.8024 30.4945 12.4482C29.991 11.094 29.2705 9.8614 28.333 8.75028C28.8191 8.57667 29.3052 8.46383 29.7913 8.41174C30.2775 8.35966 30.7636 8.33362 31.2497 8.33362C33.5413 8.33362 35.5032 9.14959 37.1351 10.7815C38.767 12.4135 39.583 14.3753 39.583 16.667ZM6.24967 37.5003H31.2497V35.8336C31.2497 35.4517 31.1542 35.1045 30.9632 34.792C30.7722 34.4795 30.5205 34.2364 30.208 34.0628C28.333 33.1253 26.4406 32.4222 24.5309 31.9534C22.6212 31.4847 20.6941 31.2503 18.7497 31.2503C16.8052 31.2503 14.8781 31.4847 12.9684 31.9534C11.0587 32.4222 9.16634 33.1253 7.29134 34.0628C6.97884 34.2364 6.72711 34.4795 6.53613 34.792C6.34516 35.1045 6.24967 35.4517 6.24967 35.8336V37.5003ZM18.7497 20.8336C19.8955 20.8336 20.8764 20.4256 21.6924 19.6097C22.5084 18.7937 22.9163 17.8128 22.9163 16.667C22.9163 15.5211 22.5084 14.5402 21.6924 13.7242C20.8764 12.9083 19.8955 12.5003 18.7497 12.5003C17.6038 12.5003 16.6229 12.9083 15.807 13.7242C14.991 14.5402 14.583 15.5211 14.583 16.667C14.583 17.8128 14.991 18.7937 15.807 19.6097C16.6229 20.4256 17.6038 20.8336 18.7497 20.8336Z" fill="#1C1B1F"/>
</g>
</svg>
