<svg width="50" height="50" viewBox="0 0 50 50" fill="none" xmlns="http://www.w3.org/2000/svg">
<mask id="mask0_101_48" style="mask-type:alpha" maskUnits="userSpaceOnUse" x="0" y="0" width="50" height="50">
<rect width="50" height="50" fill="white"/>
</mask>
<g mask="url(#mask0_101_48)">
<path d="M12.1868 35.6249C13.9577 34.2707 15.9368 33.203 18.1243 32.4217C20.3118 31.6405 22.6035 31.2499 24.9993 31.2499C27.3952 31.2499 29.6868 31.6405 31.8743 32.4217C34.0618 33.203 36.041 34.2707 37.8118 35.6249C39.0271 34.2012 39.9733 32.5867 40.6504 30.7811C41.3275 28.9756 41.666 27.0485 41.666 24.9999C41.666 20.3818 40.0428 16.4495 36.7962 13.203C33.5497 9.95646 29.6174 8.33319 24.9993 8.33319C20.3813 8.33319 16.449 9.95646 13.2025 13.203C9.95595 16.4495 8.33268 20.3818 8.33268 24.9999C8.33268 27.0485 8.67122 28.9756 9.34831 30.7811C10.0254 32.5867 10.9716 34.2012 12.1868 35.6249ZM24.9993 27.0832C22.9507 27.0832 21.2233 26.3801 19.8171 24.9738C18.4108 23.5676 17.7077 21.8401 17.7077 19.7915C17.7077 17.7429 18.4108 16.0155 19.8171 14.6092C21.2233 13.203 22.9507 12.4999 24.9993 12.4999C27.048 12.4999 28.7754 13.203 30.1816 14.6092C31.5879 16.0155 32.291 17.7429 32.291 19.7915C32.291 21.8401 31.5879 23.5676 30.1816 24.9738C28.7754 26.3801 27.048 27.0832 24.9993 27.0832ZM24.9993 45.8332C22.1174 45.8332 19.4091 45.2863 16.8743 44.1926C14.3396 43.0988 12.1348 41.6144 10.2598 39.7394C8.38477 37.8644 6.90039 35.6596 5.80664 33.1249C4.71289 30.5901 4.16602 27.8818 4.16602 24.9999C4.16602 22.1179 4.71289 19.4096 5.80664 16.8749C6.90039 14.3401 8.38477 12.1353 10.2598 10.2603C12.1348 8.38527 14.3396 6.9009 16.8743 5.80715C19.4091 4.7134 22.1174 4.16652 24.9993 4.16652C27.8813 4.16652 30.5896 4.7134 33.1243 5.80715C35.6591 6.9009 37.8639 8.38527 39.7389 10.2603C41.6139 12.1353 43.0983 14.3401 44.1921 16.8749C45.2858 19.4096 45.8327 22.1179 45.8327 24.9999C45.8327 27.8818 45.2858 30.5901 44.1921 33.1249C43.0983 35.6596 41.6139 37.8644 39.7389 39.7394C37.8639 41.6144 35.6591 43.0988 33.1243 44.1926C30.5896 45.2863 27.8813 45.8332 24.9993 45.8332ZM24.9993 41.6665C26.8396 41.6665 28.5757 41.3974 30.2077 40.8592C31.8396 40.321 33.3327 39.5485 34.6868 38.5415C33.3327 37.5346 31.8396 36.762 30.2077 36.2238C28.5757 35.6856 26.8396 35.4165 24.9993 35.4165C23.1591 35.4165 21.423 35.6856 19.791 36.2238C18.1591 36.762 16.666 37.5346 15.3118 38.5415C16.666 39.5485 18.1591 40.321 19.791 40.8592C21.423 41.3974 23.1591 41.6665 24.9993 41.6665ZM24.9993 22.9165C25.9021 22.9165 26.6487 22.6214 27.2389 22.0311C27.8292 21.4408 28.1243 20.6943 28.1243 19.7915C28.1243 18.8887 27.8292 18.1422 27.2389 17.5519C26.6487 16.9617 25.9021 16.6665 24.9993 16.6665C24.0966 16.6665 23.35 16.9617 22.7598 17.5519C22.1695 18.1422 21.8743 18.8887 21.8743 19.7915C21.8743 20.6943 22.1695 21.4408 22.7598 22.0311C23.35 22.6214 24.0966 22.9165 24.9993 22.9165Z" fill="white"/>
</g>
</svg>
