<svg width="42" height="43" viewBox="0 0 42 43" fill="none" xmlns="http://www.w3.org/2000/svg">
<path d="M15.2083 42.6016L14.375 35.8432C13.9236 35.6672 13.4983 35.456 13.099 35.2096C12.6997 34.9632 12.309 34.6992 11.9271 34.4176L5.72917 37.0576L0 27.0256L5.36458 22.9072C5.32986 22.6608 5.3125 22.4232 5.3125 22.1944V20.7688C5.3125 20.54 5.32986 20.3024 5.36458 20.056L0 15.9376L5.72917 5.90557L11.9271 8.54557C12.309 8.26397 12.7083 7.99997 13.125 7.75357C13.5417 7.50717 13.9583 7.29597 14.375 7.11997L15.2083 0.361572H26.6667L27.5 7.11997C27.9514 7.29597 28.3767 7.50717 28.776 7.75357C29.1753 7.99997 29.566 8.26397 29.9479 8.54557L36.1458 5.90557L41.875 15.9376L36.5104 20.056C36.5451 20.3024 36.5625 20.54 36.5625 20.7688V22.1944C36.5625 22.4232 36.5278 22.6608 36.4583 22.9072L41.8229 27.0256L36.0938 37.0576L29.9479 34.4176C29.566 34.6992 29.1667 34.9632 28.75 35.2096C28.3333 35.456 27.9167 35.6672 27.5 35.8432L26.6667 42.6016H15.2083ZM21.0417 28.8736C23.0556 28.8736 24.7743 28.152 26.1979 26.7088C27.6215 25.2656 28.3333 23.5232 28.3333 21.4816C28.3333 19.44 27.6215 17.6976 26.1979 16.2544C24.7743 14.8112 23.0556 14.0896 21.0417 14.0896C18.9931 14.0896 17.2656 14.8112 15.8594 16.2544C14.4531 17.6976 13.75 19.44 13.75 21.4816C13.75 23.5232 14.4531 25.2656 15.8594 26.7088C17.2656 28.152 18.9931 28.8736 21.0417 28.8736ZM21.0417 24.6496C20.1736 24.6496 19.4358 24.3416 18.8281 23.7256C18.2205 23.1096 17.9167 22.3616 17.9167 21.4816C17.9167 20.6016 18.2205 19.8536 18.8281 19.2376C19.4358 18.6216 20.1736 18.3136 21.0417 18.3136C21.9097 18.3136 22.6476 18.6216 23.2552 19.2376C23.8628 19.8536 24.1667 20.6016 24.1667 21.4816C24.1667 22.3616 23.8628 23.1096 23.2552 23.7256C22.6476 24.3416 21.9097 24.6496 21.0417 24.6496ZM18.8542 38.3776H22.9688L23.6979 32.7808C24.7743 32.4992 25.7726 32.0856 26.6927 31.54C27.6128 30.9944 28.4549 30.3344 29.2188 29.56L34.375 31.7248L36.4062 28.1344L31.9271 24.7024C32.1007 24.2096 32.2222 23.6904 32.2917 23.1448C32.3611 22.5992 32.3958 22.0448 32.3958 21.4816C32.3958 20.9184 32.3611 20.364 32.2917 19.8184C32.2222 19.2728 32.1007 18.7536 31.9271 18.2608L36.4062 14.8288L34.375 11.2384L29.2188 13.456C28.4549 12.6464 27.6128 11.9688 26.6927 11.4232C25.7726 10.8776 24.7743 10.464 23.6979 10.1824L23.0208 4.58557H18.9062L18.1771 10.1824C17.1007 10.464 16.1024 10.8776 15.1823 11.4232C14.2622 11.9688 13.4201 12.6288 12.6562 13.4032L7.5 11.2384L5.46875 14.8288L9.94792 18.208C9.77431 18.736 9.65278 19.264 9.58333 19.792C9.51389 20.32 9.47917 20.8832 9.47917 21.4816C9.47917 22.0448 9.51389 22.5904 9.58333 23.1184C9.65278 23.6464 9.77431 24.1744 9.94792 24.7024L5.46875 28.1344L7.5 31.7248L12.6562 29.5072C13.4201 30.3168 14.2622 30.9944 15.1823 31.54C16.1024 32.0856 17.1007 32.4992 18.1771 32.7808L18.8542 38.3776Z" fill="white"/>
</svg>
