<?xml version="1.0" standalone="no"?>
<!DOCTYPE svg PUBLIC "-//W3C//DTD SVG 20010904//EN"
 "http://www.w3.org/TR/2001/REC-SVG-20010904/DTD/svg10.dtd">
<svg version="1.0" xmlns="http://www.w3.org/2000/svg"
 width="1500.000000pt" height="1000.000000pt" viewBox="0 0 1500.000000 1000.000000"
 preserveAspectRatio="xMidYMid meet">

<g transform="translate(0.000000,1000.000000) scale(0.100000,-0.100000)"
fill="#000000" stroke="none">
<path d="M12505 9991 c-4 -7 -19 -17 -33 -23 -22 -9 -24 -12 -9 -15 23 -6 22
-23 -1 -23 -27 0 -34 -11 -15 -25 15 -11 14 -15 -13 -38 -20 -18 -31 -22 -37
-14 -6 9 -10 9 -14 0 -7 -19 -67 -17 -60 2 5 11 2 12 -17 4 -20 -10 -22 -14
-12 -35 6 -13 14 -24 19 -24 4 0 7 -10 6 -22 l0 -23 -9 23 c-13 30 -70 32 -70
2 0 -22 -10 -26 -27 -9 -8 8 -15 5 -26 -11 -15 -22 -15 -22 -37 -2 -18 16 -25
18 -46 8 -13 -6 -24 -14 -24 -18 0 -3 -8 -4 -18 -1 -21 5 -57 -40 -47 -57 3
-6 -5 -10 -19 -10 -19 0 -26 -6 -31 -31 -5 -23 -16 -35 -42 -46 -19 -8 -37
-23 -40 -33 -6 -21 -53 -57 -53 -40 0 19 -32 10 -37 -10 -3 -11 -13 -20 -22
-20 -9 0 -24 -8 -33 -17 -32 -34 -46 -42 -67 -36 -11 3 -21 1 -21 -4 0 -5 -11
-15 -25 -21 -14 -6 -25 -18 -25 -27 0 -14 -22 -19 -67 -18 -7 1 -13 -8 -13
-18 0 -20 -24 -26 -35 -9 -10 17 -27 11 -21 -7 2 -10 8 -29 11 -42 6 -21 4
-23 -13 -19 -14 4 -19 2 -16 -7 3 -7 1 -16 -5 -20 -6 -3 -11 2 -11 12 0 15 -2
16 -10 3 -5 -8 -10 -27 -10 -42 0 -14 -6 -28 -12 -31 -10 -3 -10 -7 -2 -18 6
-8 14 -31 18 -51 4 -21 11 -38 16 -38 6 0 10 -10 10 -22 -1 -21 -2 -22 -14 -5
-19 25 -26 21 -26 -17 0 -33 -26 -97 -42 -104 -5 -2 -8 -9 -8 -17 0 -7 -7 -18
-15 -25 -8 -6 -13 -15 -12 -18 1 -4 -8 -17 -20 -29 -17 -17 -23 -19 -23 -8 0
21 -14 19 -56 -10 -20 -14 -47 -25 -60 -25 -14 0 -28 -9 -35 -22 -19 -36 -40
-47 -68 -37 -32 13 -51 5 -51 -21 0 -23 -64 -67 -91 -62 -10 2 -23 -6 -31 -16
-7 -10 -38 -25 -68 -33 -52 -13 -105 -50 -91 -65 3 -3 -4 -3 -16 0 -14 5 -23
3 -23 -4 0 -16 -43 -30 -57 -18 -7 5 -17 7 -22 4 -5 -4 -12 -2 -16 4 -9 15
-25 12 -25 -4 0 -19 -24 -27 -60 -19 -26 5 -30 3 -30 -16 0 -14 -6 -21 -20
-21 -11 0 -20 6 -20 13 0 7 -11 23 -25 35 -14 13 -23 27 -20 32 3 5 -1 7 -8 4
-8 -3 -17 -13 -20 -23 -3 -14 -12 -17 -36 -13 -30 4 -32 3 -26 -21 5 -19 2
-27 -13 -31 -10 -4 -26 -4 -35 -1 -8 4 -18 2 -22 -4 -3 -6 -15 -11 -26 -11
-24 0 -37 -29 -19 -40 8 -5 15 -16 16 -26 3 -18 21 -34 42 -34 23 0 12 -27
-16 -39 -42 -18 -90 -15 -177 9 -69 19 -96 22 -190 17 -123 -6 -191 -25 -317
-88 -43 -21 -78 -36 -78 -33 0 2 11 26 24 53 29 57 69 194 91 310 19 107 20
132 0 125 -8 -4 -15 -12 -15 -20 0 -22 -54 -104 -69 -104 -10 0 -12 -8 -7 -30
5 -27 2 -32 -21 -41 -19 -7 -23 -13 -15 -21 14 -14 4 -38 -15 -38 -10 0 -13
-6 -9 -16 5 -13 1 -14 -23 -9 -25 5 -32 2 -45 -22 -8 -15 -15 -25 -16 -21 0 4
-12 -4 -27 -18 l-28 -26 -5 26 c-5 24 -6 23 -25 -19 -21 -49 -37 -60 -64 -45
-19 10 -61 3 -61 -11 0 -4 10 -17 21 -28 23 -22 29 -69 9 -81 -9 -5 -6 -12 11
-23 22 -16 21 -16 -29 -10 -58 7 -65 1 -24 -21 23 -13 24 -15 7 -16 -17 0 -18
-2 -5 -11 12 -8 11 -9 -5 -5 -29 8 -41 -4 -49 -45 -7 -38 -25 -48 -95 -50 -14
0 -20 -3 -13 -6 6 -2 12 -10 12 -18 0 -7 6 -18 14 -24 11 -9 12 -20 4 -49 -13
-47 -12 -47 -42 -26 -32 20 -44 12 -27 -20 14 -25 61 -34 61 -12 0 7 14 25 30
41 17 16 30 26 30 23 0 -14 -63 -131 -80 -148 -10 -10 -21 -28 -25 -40 -4 -12
-19 -41 -35 -63 -15 -23 -52 -87 -82 -142 -30 -55 -88 -158 -128 -230 -40 -71
-109 -201 -154 -287 l-80 -158 16 -50 c15 -46 15 -52 0 -70 -15 -16 -124 -87
-267 -173 -22 -13 -70 -42 -106 -65 -85 -55 -95 -53 -24 4 31 25 55 48 53 49
-2 2 -64 -16 -138 -40 -74 -24 -263 -85 -420 -135 -700 -225 -1321 -428 -1342
-440 -10 -6 -25 -10 -33 -10 -8 0 -15 -4 -15 -10 0 -5 2 -10 4 -10 3 0 85 27
183 61 98 33 205 69 238 79 33 10 87 28 119 39 33 12 62 19 64 16 3 -3 10 -1
16 4 21 17 195 73 206 66 6 -4 23 1 37 10 18 12 38 16 67 12 37 -5 39 -4 14 6
-26 10 -22 13 74 44 56 19 108 31 116 28 7 -2 11 -1 8 4 -7 11 48 23 69 15 10
-4 15 0 15 10 0 19 16 21 23 4 4 -8 6 -7 6 3 1 9 11 19 23 22 28 8 48 -4 23
-13 -11 -4 -22 -18 -26 -31 -3 -13 -11 -23 -18 -21 -6 1 -16 -10 -22 -25 -14
-38 -70 -87 -80 -71 -6 10 -12 8 -23 -7 -9 -11 -16 -26 -16 -32 0 -18 -20 -16
-20 2 0 24 -17 17 -24 -10 -7 -29 -22 -33 -29 -7 -4 14 -6 14 -12 -5 -4 -13
-11 -23 -16 -23 -5 0 -6 7 -2 17 5 12 -1 11 -25 -7 -19 -14 -48 -24 -79 -26
-26 -1 -56 -6 -65 -9 -10 -4 -18 -3 -18 2 0 13 38 53 50 53 6 0 10 7 10 15 0
8 -9 15 -20 15 -11 0 -20 -4 -20 -10 0 -5 -7 -10 -16 -10 -12 0 -15 -6 -10
-25 5 -18 2 -25 -9 -25 -8 0 -15 -4 -15 -10 0 -5 7 -10 15 -10 8 0 15 -5 15
-11 0 -6 7 -9 15 -5 8 3 15 1 15 -5 0 -7 -13 -9 -35 -5 -27 5 -37 3 -41 -9 -6
-14 -8 -14 -20 2 -13 17 -14 17 -20 -4 -3 -13 -13 -23 -20 -23 -16 0 -19 26
-5 35 16 9 10 64 -8 67 -29 6 -84 -4 -71 -12 8 -5 2 -8 -16 -9 -61 -1 -69 -2
-84 -15 -29 -26 -91 -49 -134 -50 -32 -1 -42 -4 -38 -15 3 -9 0 -12 -9 -9 -8
3 -22 1 -33 -4 -10 -6 -33 -12 -50 -15 -17 -3 -38 -9 -47 -14 -9 -4 -20 -5
-25 -1 -5 4 -3 -1 4 -10 11 -14 10 -16 -6 -11 -11 2 -23 0 -26 -6 -4 -5 -13
-8 -20 -5 -8 3 -17 -3 -20 -14 -5 -13 -16 -19 -44 -20 -64 -1 -73 -3 -67 -13
4 -5 2 -9 -4 -9 -5 0 -13 -9 -16 -20 -3 -11 -11 -20 -17 -20 -5 0 -8 7 -4 15
8 21 -18 19 -40 -2 -17 -17 -46 -24 -119 -27 -32 -2 -39 -5 -37 -19 2 -9 -2
-17 -8 -17 -5 0 -10 8 -11 18 0 10 -3 12 -6 5 -2 -7 -3 -14 -1 -15 6 -6 -27
-36 -34 -31 -4 2 -17 -1 -29 -8 -16 -8 -18 -13 -9 -19 9 -6 8 -14 -5 -34 -10
-15 -13 -26 -6 -26 6 0 11 3 11 8 0 4 15 7 33 8 18 0 48 8 66 17 19 9 42 17
52 17 10 0 21 5 24 11 4 6 13 8 21 5 8 -3 24 -1 37 4 12 5 39 11 60 15 23 4
37 11 37 20 0 8 5 15 10 15 6 0 10 -4 10 -10 0 -5 5 -10 11 -10 5 0 7 5 3 12
-4 7 -3 8 4 4 6 -4 127 25 269 63 142 39 283 77 313 84 30 8 156 43 279 76
123 34 226 59 229 56 3 -3 0 -5 -7 -5 -10 0 -192 -64 -256 -90 -11 -4 -46 -18
-78 -30 -59 -23 -74 -38 -21 -21 16 5 103 33 194 61 91 27 181 55 200 62 19 6
64 29 100 52 99 63 177 102 264 131 86 29 169 60 201 75 11 5 56 22 100 36
133 45 180 63 171 63 -5 1 -3 7 4 15 7 10 18 12 32 7 14 -5 52 2 112 22 76 25
112 30 224 34 215 8 388 -20 513 -83 37 -18 112 -53 166 -77 l98 -43 124 13
125 14 45 -44 c71 -67 207 -134 286 -141 19 -1 50 -17 77 -39 25 -20 48 -37
51 -37 3 0 28 -13 54 -28 59 -34 147 -59 188 -53 6 1 -24 18 -65 38 -41 20
-70 38 -63 40 6 2 26 -3 43 -12 76 -39 122 -22 134 50 4 25 3 35 -2 26 -6 -8
-29 -14 -61 -14 -29 0 -46 -4 -39 -9 7 -4 -5 -5 -27 -1 -46 7 -135 49 -135 63
0 6 -12 15 -27 21 -67 25 -181 86 -219 115 -29 23 -48 31 -63 27 -16 -4 -20
-2 -15 10 3 10 -2 18 -15 22 -12 3 -21 13 -21 21 0 11 -6 13 -20 9 -15 -5 -20
-2 -20 12 0 14 -2 15 -9 4 -7 -10 -12 -8 -25 10 -9 13 -16 33 -16 46 0 12 -4
25 -10 28 -5 3 -10 19 -10 35 0 16 -4 31 -9 35 -20 12 -8 66 20 90 111 93 298
76 335 -30 11 -33 10 -36 -4 -29 -27 11 -95 4 -120 -12 -31 -21 -24 -26 19
-14 66 19 105 12 195 -35 46 -25 90 -45 96 -45 6 0 78 32 159 72 102 49 148
76 147 86 -2 8 3 17 11 20 8 2 11 0 8 -5 -4 -6 14 -3 38 6 37 13 41 17 25 23
-27 10 -25 22 2 14 48 -12 169 31 264 96 l48 32 -39 9 c-22 5 -74 6 -115 3
-63 -4 -72 -3 -57 8 25 19 22 21 -25 22 -42 1 -87 9 -118 21 -8 4 -19 5 -24 4
-4 -1 -14 4 -22 10 -11 9 -19 8 -34 -6 -13 -12 -27 -15 -46 -11 -15 4 -47 0
-77 -10 -35 -12 -52 -13 -55 -6 -2 6 -10 8 -18 5 -8 -3 -14 -1 -14 3 0 14 18
39 28 39 5 0 16 8 26 18 24 23 114 81 194 123 49 26 76 34 116 34 71 0 143
-23 189 -61 42 -34 79 -103 72 -134 -2 -11 -4 -24 -4 -29 -1 -4 -9 -5 -18 -1
-14 5 -15 3 -6 -6 9 -9 21 -5 52 18 23 17 37 33 33 38 -4 4 3 4 16 0 13 -4 29
-2 37 5 9 7 15 8 20 0 8 -12 145 -13 199 -1 62 15 63 28 2 23 -71 -6 -133 5
-117 21 14 14 14 27 1 27 -5 0 -39 18 -75 40 -36 22 -70 40 -75 40 -6 0 -10 4
-10 10 0 5 -11 12 -25 16 -14 3 -29 13 -33 21 -5 8 -27 17 -50 20 -23 3 -42
11 -42 17 0 17 95 72 166 97 40 14 71 19 97 15 45 -7 107 -37 126 -60 19 -23
28 -20 46 14 22 43 19 76 -15 146 -45 91 -133 177 -224 220 -86 39 -125 42
-198 14 -29 -11 -54 -20 -54 -20 -1 0 -5 11 -8 25 -3 13 -20 40 -37 59 l-30
35 21 38 c11 21 20 44 20 51 0 8 6 28 14 45 8 18 16 40 20 50 4 12 16 17 44
17 66 0 139 28 209 82 38 29 73 57 78 64 6 6 26 17 46 23 20 7 64 33 96 59 33
26 84 65 112 87 29 22 60 52 69 66 9 15 40 44 67 65 79 60 114 111 120 179 2
22 2 32 -1 23 -3 -10 -10 -18 -15 -18 -5 0 -9 -7 -9 -16 0 -8 -5 -12 -10 -9
-6 4 -17 2 -23 -4 -14 -11 -89 10 -95 27 -1 5 -12 8 -22 5 -11 -3 -20 0 -20 6
0 6 5 11 10 11 6 0 19 9 30 20 22 22 15 25 -27 9 -22 -8 -30 -7 -40 7 -15 20
0 56 20 48 9 -3 19 10 30 36 14 36 19 40 51 40 20 0 36 5 36 11 0 13 122 9
131 -4 4 -5 10 -4 13 2 4 6 2 11 -3 11 -6 0 -11 5 -11 11 0 6 8 8 19 4 15 -4
30 8 67 55 26 33 50 60 54 60 4 0 45 29 91 63 179 135 512 325 998 567 366
183 633 313 677 330 55 21 430 194 439 201 5 5 -272 9 -643 9 -428 0 -652 -3
-652 -10 0 -5 -7 -10 -15 -10 -8 0 -15 5 -15 10 0 6 -7 10 -15 10 -8 0 -15 -7
-15 -15 0 -20 -27 -19 -38 1 -7 12 -11 13 -17 5z m-970 -1191 c3 -5 1 -10 -4
-10 -6 0 -11 5 -11 10 0 6 2 10 4 10 3 0 8 -4 11 -10z m30 -60 c3 -5 1 -10 -4
-10 -6 0 -11 5 -11 10 0 6 2 10 4 10 3 0 8 -4 11 -10z m-1730 -490 c3 -5 1
-10 -4 -10 -6 0 -11 5 -11 10 0 6 2 10 4 10 3 0 8 -4 11 -10z m9 -19 c20 -1
20 -1 0 -16 -24 -18 -42 -19 -60 -1 -20 21 -18 25 14 22 15 -2 36 -4 46 -5z
m-632 -112 c-15 -6 -30 -5 -40 1 -13 7 -8 9 23 9 35 0 37 -1 17 -10z m23 -28
c3 -6 -4 -15 -15 -21 -16 -8 -20 -8 -18 2 2 7 8 16 13 20 13 10 13 10 20 -1z
m543 -73 c-4 -11 -93 -37 -128 -37 -24 0 17 20 69 35 60 16 63 16 59 2z m-47
-373 c5 -4 9 -1 9 4 0 17 72 13 92 -6 46 -42 -8 -215 -114 -362 -62 -85 -180
-195 -254 -237 -55 -31 -79 -38 -138 -42 -114 -7 -202 29 -256 104 -14 20 -31
41 -37 49 -7 7 -13 22 -13 32 0 38 77 177 95 172 4 0 19 9 33 22 55 48 135 89
174 89 36 0 109 -27 116 -42 2 -5 12 -8 22 -8 10 0 21 -7 24 -16 3 -8 11 -12
17 -9 14 10 -19 40 -54 49 -14 3 -42 22 -61 41 l-35 35 43 25 c23 14 48 25 54
25 6 0 26 9 44 19 18 10 56 22 83 26 28 4 44 10 37 12 -10 4 -8 9 5 19 17 13
92 12 114 -1z m439 -227 c30 -56 56 -106 58 -112 2 -11 -97 -66 -118 -66 -6 0
-10 7 -10 16 0 25 -62 178 -82 200 -10 11 -18 30 -18 42 0 20 5 22 58 22 l57
-1 55 -101z m695 72 c3 -5 1 -10 -4 -10 -6 0 -11 5 -11 10 0 6 2 10 4 10 3 0
8 -4 11 -10z m44 -53 c9 -12 7 -15 -14 -19 -29 -6 -45 10 -24 23 10 6 11 9 2
9 -7 0 -13 5 -13 10 0 13 31 -2 49 -23z m24 -110 c4 3 7 1 7 -6 0 -9 -9 -12
-25 -9 -14 3 -25 1 -25 -5 0 -6 -3 -7 -6 -4 -12 12 18 38 31 27 6 -5 15 -7 18
-3z m-1828 -475 c-2 -2 -25 -9 -51 -16 -27 -7 -59 -16 -71 -20 -21 -7 -23 -4
-23 29 0 32 8 44 57 90 l57 53 17 -67 c9 -36 16 -67 14 -69z m615 8 c0 -5 -5
-10 -11 -10 -5 0 -7 5 -4 10 3 6 8 10 11 10 2 0 4 -4 4 -10z m-40 -20 c-8 -5
-22 -9 -30 -9 -10 0 -8 3 5 9 27 12 43 12 25 0z m-550 -60 c-8 -5 -19 -10 -25
-10 -5 0 -3 5 5 10 8 5 20 10 25 10 6 0 3 -5 -5 -10z m-316 -18 c-7 -4 -50
-42 -98 -85 -104 -95 -175 -151 -183 -143 -4 3 -1 6 5 6 7 0 12 4 12 10 0 5
-7 7 -15 4 -8 -4 -15 -1 -15 5 0 6 4 11 10 11 5 0 6 8 3 18 -6 14 -4 15 9 4
10 -8 18 -9 22 -3 4 6 13 8 21 4 20 -7 51 17 35 27 -7 5 -2 10 14 14 29 7 34
21 11 30 -8 3 -15 10 -15 16 0 6 4 9 9 6 5 -4 11 -2 13 3 4 11 139 80 158 80
10 1 11 -2 4 -7z m244 -4 c-6 -18 -28 -21 -28 -4 0 9 7 16 16 16 9 0 14 -5 12
-12z m856 -29 c-6 -11 -24 -2 -24 11 0 5 7 7 15 4 8 -4 12 -10 9 -15z m-1329
-76 c-16 -9 -32 -19 -35 -22 -4 -5 -36 -22 -75 -40 -5 -2 -3 3 6 11 17 18 109
67 124 67 6 0 -3 -7 -20 -16z m1849 -54 c-8 -13 -21 -11 -27 5 -4 10 0 12 14
9 10 -3 16 -9 13 -14z m-1950 -80 c-8 -14 -24 -10 -24 6 0 9 6 12 15 9 8 -4
12 -10 9 -15z m-575 -158 c11 -7 9 -11 -9 -21 -20 -11 -22 -10 -17 4 6 14 3
16 -16 11 -17 -5 -19 -4 -7 4 18 13 31 13 49 2z m-339 -41 c8 -5 11 -10 5 -10
-5 0 -17 5 -25 10 -8 5 -10 10 -5 10 6 0 17 -5 25 -10z m275 -19 c3 -5 1 -12
-5 -16 -5 -3 -10 1 -10 9 0 18 6 21 15 7z m-40 -31 c3 -5 1 -10 -4 -10 -6 0
-11 5 -11 10 0 6 2 10 4 10 3 0 8 -4 11 -10z m-919 -246 c-7 -22 -17 -38 -22
-37 -5 0 -8 -3 -7 -7 1 -4 -18 -13 -43 -20 -25 -7 -52 -20 -61 -28 -13 -13
-16 -13 -24 -1 -13 21 -11 39 6 39 8 0 15 7 15 15 0 17 16 20 25 5 3 -5 18
-10 33 -9 24 0 25 1 7 9 -13 6 -15 9 -5 9 8 1 28 22 44 48 23 38 30 44 37 31
5 -10 4 -30 -5 -54z m-106 6 c0 -5 -4 -10 -10 -10 -5 0 -10 5 -10 10 0 6 5 10
10 10 6 0 10 -4 10 -10z m-65 -20 c-3 -5 -14 -10 -23 -9 -14 0 -13 2 3 9 27
11 27 11 20 0z m4 -84 c-12 -10 -79 -16 -79 -6 0 5 19 10 42 10 23 0 39 -2 37
-4z m-152 -28 c-3 -8 -6 -5 -6 6 -1 11 2 17 5 13 3 -3 4 -12 1 -19z m-312 -48
c3 -5 1 -10 -4 -10 -6 0 -11 5 -11 10 0 6 2 10 4 10 3 0 8 -4 11 -10z m-236
-87 c14 -10 13 -11 -6 -6 -15 3 -23 13 -22 27 0 15 2 16 6 6 4 -8 13 -20 22
-27z m-35 -9 c23 -9 20 -23 -4 -17 -11 3 -20 9 -20 14 0 11 3 11 24 3z m3 -40
c-3 -3 -12 -4 -19 -1 -8 3 -5 6 6 6 11 1 17 -2 13 -5z"/>
<path d="M9466 7253 c-6 -14 -5 -15 5 -6 7 7 10 15 7 18 -3 3 -9 -2 -12 -12z"/>
<path d="M9443 7217 c-4 -7 -50 -39 -100 -71 -51 -32 -93 -62 -93 -67 0 -17
37 -9 55 11 10 12 35 30 54 42 44 26 80 57 92 81 11 20 4 24 -8 4z"/>
<path d="M12408 9933 c7 -3 16 -2 19 1 4 3 -2 6 -13 5 -11 0 -14 -3 -6 -6z"/>
<path d="M12240 9824 c0 -8 5 -12 10 -9 6 3 10 10 10 16 0 5 -4 9 -10 9 -5 0
-10 -7 -10 -16z"/>
<path d="M11520 8640 c-12 -7 -10 -9 7 -7 12 0 19 5 17 9 -6 10 -6 10 -24 -2z"/>
<path d="M11558 8628 c-9 -21 -48 -30 -55 -12 -6 16 -53 20 -53 4 0 -5 9 -14
20 -20 11 -6 20 -18 20 -26 0 -11 6 -13 21 -9 15 5 19 4 15 -4 -4 -6 -5 -11
-2 -11 10 0 47 71 44 82 -3 8 -6 7 -10 -4z"/>
<path d="M8940 7810 c0 -5 5 -10 10 -10 6 0 10 5 10 10 0 6 -4 10 -10 10 -5 0
-10 -4 -10 -10z"/>
<path d="M8059 6593 c-13 -15 -12 -15 11 -3 34 17 36 20 18 20 -9 0 -22 -7
-29 -17z"/>
<path d="M7898 6513 c7 -3 16 -2 19 1 4 3 -2 6 -13 5 -11 0 -14 -3 -6 -6z"/>
<path d="M7750 6470 c-9 -6 -10 -10 -3 -10 6 0 15 5 18 10 8 12 4 12 -15 0z"/>
<path d="M7171 6211 c-7 -5 -9 -11 -5 -14 10 -5 54 9 54 18 0 8 -34 6 -49 -4z"/>
<path d="M7091 6171 c-10 -7 -7 -9 12 -8 14 1 23 5 20 10 -6 9 -15 9 -32 -2z"/>
<path d="M6805 6160 c-13 -5 -14 -9 -5 -9 8 0 24 4 35 9 13 5 14 9 5 9 -8 0
-24 -4 -35 -9z"/>
<path d="M6580 6086 c-210 -72 -477 -164 -563 -195 -32 -11 -117 -53 -190 -92
-287 -157 -368 -213 -350 -243 5 -7 9 -5 11 7 3 16 13 21 40 18 6 -1 12 2 12
8 0 14 229 133 242 125 6 -4 8 -3 5 3 -8 12 225 125 320 154 40 13 70 26 67
30 -2 4 -31 -2 -64 -13 -33 -12 -63 -18 -67 -14 -3 3 -4 8 -2 9 5 4 551 194
649 226 62 20 106 41 85 40 -5 0 -93 -29 -195 -63z"/>
<path d="M6900 6112 c0 -14 55 -35 77 -29 15 4 14 5 -4 6 -17 1 -21 6 -17 19
5 13 4 14 -4 3 -7 -10 -14 -11 -31 -2 -11 7 -21 8 -21 3z"/>
<path d="M6935 6060 c3 -5 10 -10 16 -10 5 0 9 5 9 10 0 6 -7 10 -16 10 -8 0
-12 -4 -9 -10z"/>
<path d="M6630 6030 c0 -5 6 -10 14 -10 8 0 18 5 21 10 3 6 -3 10 -14 10 -12
0 -21 -4 -21 -10z"/>
<path d="M5780 5701 c-24 -7 -24 -8 7 -12 37 -6 64 5 38 15 -9 3 -17 6 -18 5
-1 -1 -13 -4 -27 -8z"/>
<path d="M5774 5669 c-3 -6 0 -16 7 -21 10 -6 -1 -8 -31 -4 -27 4 -40 3 -32
-2 11 -8 11 -10 -1 -15 -16 -6 -31 18 -21 34 3 5 0 9 -5 9 -6 0 -11 -7 -11
-16 0 -8 -4 -12 -10 -9 -12 8 -113 -48 -109 -61 2 -5 9 -7 14 -5 6 2 15 4 20
5 55 12 75 19 75 27 0 5 -11 7 -25 3 -30 -8 -33 1 -4 16 22 12 54 -4 43 -22
-3 -5 11 -2 31 6 21 9 43 16 51 16 7 0 25 5 41 12 15 6 31 11 36 10 4 -1 7 5
7 13 0 8 -7 15 -15 15 -8 0 -15 -4 -15 -10 0 -5 -7 -10 -16 -10 -8 0 -12 5 -9
10 3 6 2 10 -4 10 -5 0 -13 -5 -17 -11z"/>
<path d="M5728 5663 c6 -2 18 -2 25 0 6 3 1 5 -13 5 -14 0 -19 -2 -12 -5z"/>
<path d="M14960 3925 c0 -8 9 -15 20 -15 11 0 20 7 20 15 0 8 -9 15 -20 15
-11 0 -20 -7 -20 -15z"/>
<path d="M14915 3879 c-4 -6 -5 -12 -2 -15 7 -7 37 7 37 17 0 13 -27 11 -35
-2z"/>
<path d="M14800 3780 c0 -11 7 -20 15 -20 11 0 15 -11 15 -40 0 -58 17 -49 23
13 6 62 3 67 -29 67 -17 0 -24 -5 -24 -20z"/>
<path d="M14900 3770 c0 -5 5 -10 10 -10 18 0 10 -22 -10 -27 -15 -4 -20 -14
-20 -39 0 -24 -5 -34 -15 -34 -8 0 -24 -6 -35 -12 -16 -10 -22 -10 -33 6 -10
14 -32 19 -97 23 -78 6 -84 5 -71 -10 11 -14 11 -18 -4 -23 -10 -4 -15 -14
-12 -24 5 -20 -26 -30 -68 -22 -22 4 -25 10 -25 43 0 36 -2 39 -26 37 -30 -3
-44 -26 -23 -39 21 -12 -18 -38 -57 -39 -17 0 -37 -7 -44 -14 -6 -8 -27 -20
-46 -26 -19 -7 -39 -20 -44 -31 -17 -32 -90 -26 -129 10 l-31 29 -37 -19 c-20
-10 -44 -19 -52 -19 -9 0 -6 -7 9 -20 30 -26 44 -25 63 3 21 30 36 12 30 -35
-5 -36 -7 -38 -39 -38 -36 0 -42 -8 -22 -28 20 -20 3 -23 -35 -7 -37 15 -49
35 -22 35 8 0 15 7 15 15 0 9 -7 18 -15 21 -8 4 -15 15 -15 25 0 10 -4 19 -10
19 -5 0 -10 -18 -10 -40 0 -32 -4 -40 -18 -40 -28 0 -34 -11 -14 -26 15 -12
13 -13 -15 -8 -21 4 -41 0 -62 -12 -32 -19 -40 -34 -19 -34 6 0 9 -2 6 -5 -10
-11 -38 8 -38 25 0 21 -20 31 -70 36 -51 5 -70 -4 -70 -32 0 -28 15 -30 58 -8
25 12 36 13 53 3 16 -8 18 -13 9 -19 -11 -7 -11 -14 -1 -38 15 -35 8 -52 -20
-52 -10 0 -19 -4 -19 -9 0 -5 -9 -11 -20 -14 -26 -7 -37 -36 -19 -49 10 -7 7
-8 -13 -5 -24 4 -30 -1 -45 -34 -10 -22 -25 -39 -35 -39 -13 0 -15 7 -11 40 4
28 2 40 -6 40 -9 0 -12 -15 -10 -47 l3 -48 -42 -3 c-40 -3 -42 -5 -43 -35 0
-30 -1 -31 -11 -9 -14 27 -44 29 -53 2 -5 -14 -15 -20 -38 -20 -111 2 -127 0
-127 -14 0 -8 -8 -19 -17 -25 -15 -8 -16 -12 -5 -22 23 -24 12 -32 -38 -27
-54 5 -52 8 -55 -61 -2 -48 -23 -32 -29 23 -7 53 -26 88 -26 48 0 -14 -9 -21
-30 -25 -16 -4 -30 -11 -30 -17 0 -15 -25 -40 -39 -40 -6 0 -11 -4 -11 -8 0
-5 -11 -14 -25 -20 -14 -7 -25 -20 -25 -31 0 -19 -35 -39 -47 -27 -4 3 1 6 10
6 9 0 17 5 17 10 0 17 -32 11 -49 -9 -11 -12 -37 -22 -69 -27 -44 -6 -52 -4
-52 10 0 9 -7 16 -16 16 -8 0 -12 -5 -9 -10 3 -6 -1 -13 -9 -16 -9 -3 -16 -17
-16 -31 0 -33 -20 -19 -21 15 -1 19 -7 9 -21 -35 -19 -59 -21 -62 -59 -68 -22
-4 -43 -5 -46 -2 -3 3 -14 -2 -25 -13 -18 -16 -22 -17 -46 -4 -15 8 -45 14
-67 13 -22 -1 -48 2 -57 6 -10 4 -26 4 -35 0 -17 -6 -17 -7 0 -16 9 -6 17 -14
17 -19 0 -19 -17 -10 -30 15 -16 30 -30 32 -37 5 -6 -22 -18 -26 -28 -10 -10
15 -25 12 -25 -6 0 -12 -7 -14 -32 -9 -18 4 -39 12 -46 18 -9 7 -16 5 -26 -8
-14 -19 -56 -13 -56 8 0 7 -4 6 -10 -3 -9 -13 -11 -13 -19 0 -16 24 -22 6 -10
-28 18 -52 6 -54 -33 -6 -29 36 -38 42 -38 27 0 -11 7 -26 15 -33 8 -7 15 -16
15 -21 0 -5 -7 -9 -15 -9 -8 0 -15 6 -15 14 0 22 -42 49 -52 33 -6 -9 -14 -5
-29 13 -19 23 -22 23 -33 7 -7 -9 -16 -14 -19 -11 -3 3 -3 -4 0 -15 4 -16 2
-20 -10 -15 -9 3 -18 12 -21 20 -9 23 -39 18 -33 -6 6 -23 3 -24 -21 -9 -15 9
-24 8 -45 -6 -15 -9 -27 -24 -27 -31 0 -16 -16 -19 -24 -5 -3 5 -17 11 -30 13
-21 4 -27 -1 -40 -32 -8 -21 -12 -46 -10 -58 3 -11 1 -23 -5 -26 -6 -4 -11 -1
-11 6 0 23 -32 98 -40 93 -4 -3 -4 -21 0 -40 6 -28 5 -35 -7 -35 -8 0 -12 4
-9 9 9 13 -26 23 -38 11 -15 -15 -26 -12 -26 8 0 14 -2 15 -9 2 -6 -8 -8 -17
-5 -21 2 -4 -5 -5 -16 -2 -11 3 -20 9 -20 14 0 5 -5 9 -10 9 -6 0 -8 -12 -5
-27 l5 -28 -11 28 c-6 15 -15 24 -21 21 -7 -4 -7 -9 0 -13 15 -9 27 -81 13
-81 -6 0 -16 -11 -21 -25 -6 -16 -15 -23 -24 -19 -17 6 -35 -23 -37 -58 -1
-18 -3 -15 -11 12 -32 112 -53 122 -46 23 3 -38 3 -60 1 -50 -3 9 -8 17 -13
17 -4 0 -10 9 -13 21 -7 28 -41 21 -45 -9 -2 -13 -10 -26 -18 -29 -8 -3 -14
-17 -14 -32 0 -19 -3 -22 -9 -12 -8 12 -14 12 -37 -4 -20 -13 -29 -15 -32 -6
-3 9 -7 9 -19 0 -12 -10 -16 -10 -23 1 -13 22 -22 6 -23 -41 -1 -28 -9 -51
-23 -66 -23 -25 -34 -21 -34 14 0 14 -6 23 -15 23 -10 0 -15 -10 -15 -29 0
-24 -3 -28 -20 -24 -16 4 -20 1 -17 -16 2 -11 6 -23 10 -27 14 -14 -26 -54
-54 -54 -26 0 -29 -3 -29 -31 0 -25 -3 -30 -16 -25 -21 8 -44 -11 -44 -35 0
-11 -4 -19 -10 -19 -5 0 -10 14 -10 30 0 17 -4 30 -10 30 -5 0 -10 -7 -10 -15
0 -27 -20 -16 -27 15 -9 45 -20 45 -28 0 -7 -42 -19 -51 -29 -23 -6 15 -10 14
-31 -10 -15 -15 -41 -29 -62 -32 -58 -10 -72 -15 -88 -31 -13 -14 -15 -14 -15
2 0 14 -2 15 -17 3 -9 -8 -32 -14 -52 -14 -26 0 -36 -5 -39 -17 -2 -11 3 -18
12 -18 9 0 16 5 16 12 0 6 2 9 5 7 2 -3 2 -15 -2 -28 -5 -20 -10 -22 -45 -16
-37 7 -40 6 -34 -13 8 -24 -13 -31 -61 -21 -24 5 -30 3 -26 -7 3 -8 0 -14 -6
-14 -6 0 -11 5 -11 10 0 6 -7 10 -15 10 -13 0 -14 -4 -5 -20 8 -16 8 -20 -3
-20 -8 0 -19 -10 -25 -22 -8 -18 -11 -19 -11 -5 -1 9 -6 17 -12 17 -20 0 -50
-21 -43 -31 3 -6 -4 -7 -20 -3 -16 4 -26 2 -26 -5 0 -6 -9 -11 -20 -11 -11 0
-20 5 -20 11 0 6 -6 9 -12 6 -7 -2 -23 0 -35 4 -26 10 -28 6 -12 -23 10 -19 9
-20 -15 -14 -15 4 -26 2 -26 -4 0 -5 -15 -10 -34 -10 -19 0 -37 -4 -40 -9 -4
-5 -24 -12 -46 -16 -30 -5 -40 -11 -40 -25 0 -31 -16 -31 -45 -2 l-28 27 6
-32 c7 -36 2 -40 -27 -18 -12 9 -30 12 -49 8 -28 -6 -30 -5 -25 21 4 21 2 26
-9 22 -8 -3 -17 -6 -19 -6 -2 0 -4 -7 -4 -15 0 -20 -17 -19 -29 3 -10 16 -10
16 -11 0 0 -27 -19 -31 -29 -6 -9 23 -9 23 -16 -5 l-8 -29 -17 39 -17 38 -8
-30 c-7 -26 -9 -27 -16 -10 -4 11 -8 36 -8 56 -1 36 -21 56 -43 43 -5 -3 -25
-6 -44 -6 -35 0 -46 -14 -19 -24 8 -4 15 -12 15 -19 0 -6 10 -17 23 -23 22
-11 22 -11 -5 -11 -14 -1 -29 -7 -31 -13 -4 -10 -6 -10 -6 0 -1 7 -12 2 -26
-14 -16 -18 -31 -25 -45 -21 -14 4 -20 0 -20 -11 0 -12 -3 -13 -12 -4 -16 16
-28 15 -28 -3 0 -8 -4 -15 -10 -15 -5 0 -10 9 -10 19 0 11 5 23 10 26 16 10
11 32 -8 37 -12 4 -18 0 -18 -11 -1 -65 -3 -71 -33 -71 -20 0 -35 8 -45 22 -9
12 -16 17 -16 10 0 -6 -20 -21 -45 -33 -25 -12 -45 -28 -45 -36 0 -11 -8 -14
-30 -11 -16 3 -30 1 -30 -3 0 -5 -36 -7 -80 -6 -46 1 -72 5 -62 10 9 4 -2 5
-25 2 -24 -3 -45 -1 -48 5 -4 6 -15 8 -25 5 -10 -3 -21 -1 -25 5 -3 5 -17 10
-31 10 -14 0 -23 3 -21 7 3 5 -6 9 -19 9 -13 1 -30 9 -39 17 -9 9 -23 13 -32
10 -12 -5 -15 -2 -10 10 4 12 -1 17 -21 19 -15 2 -26 9 -24 16 1 6 -8 12 -20
13 -13 0 -17 3 -10 6 6 2 12 20 12 39 0 31 -3 34 -28 34 -15 0 -33 -5 -40 -12
-9 -9 -12 -6 -12 15 0 21 -5 27 -20 27 -12 0 -31 11 -44 25 -13 14 -30 25 -37
26 -18 0 -79 84 -79 108 0 10 14 33 31 50 17 18 29 34 27 37 -2 2 -52 -13
-111 -33 l-107 -36 22 -24 c18 -20 19 -23 4 -23 -9 0 -27 -7 -40 -15 -16 -10
-43 -14 -84 -13 -59 3 -77 10 -49 21 9 4 9 6 0 6 -6 1 -15 -4 -18 -9 -3 -6
-18 -10 -33 -11 -24 0 -25 -1 -7 -9 17 -7 17 -9 3 -9 -29 -1 -20 -21 10 -22
21 -2 18 -3 -13 -9 -22 -4 -32 -8 -22 -9 13 -1 17 -10 17 -40 0 -22 -6 -46
-13 -53 -57 -56 -35 -108 46 -108 43 0 120 -41 183 -99 27 -24 72 -53 99 -66
28 -13 68 -35 90 -51 73 -50 211 -114 326 -150 63 -19 123 -39 134 -44 11 -5
70 -21 130 -35 168 -39 223 -54 310 -87 265 -99 396 -105 931 -38 136 17 312
38 393 46 80 7 202 23 271 33 192 31 492 29 713 -4 92 -13 213 -36 270 -49 56
-14 167 -37 247 -51 80 -15 224 -43 320 -62 96 -19 198 -39 225 -44 28 -5 66
-16 85 -23 19 -8 53 -19 75 -25 22 -6 74 -20 115 -32 41 -12 94 -23 118 -26
27 -3 42 -10 42 -19 0 -10 13 -14 46 -14 25 0 51 -6 59 -13 7 -8 42 -20 77
-27 35 -6 95 -27 134 -46 39 -19 78 -34 88 -34 9 0 35 -9 58 -21 52 -26 139
-49 253 -64 30 -5 65 -18 65 -26 0 -5 19 -9 43 -9 23 0 69 -7 102 -15 32 -9
74 -15 94 -14 20 1 65 -4 101 -11 36 -6 86 -14 113 -17 26 -3 47 -10 47 -16 0
-5 14 -7 33 -4 31 5 148 -5 212 -18 66 -14 163 -17 183 -6 13 7 23 8 27 1 9
-15 219 -10 251 6 14 8 55 14 90 14 36 0 64 4 64 10 0 6 6 10 14 10 7 0 21 11
30 25 14 21 16 71 16 403 l0 379 -25 11 c-14 7 -31 12 -38 12 -7 0 -23 6 -37
13 -14 7 -58 14 -99 15 -41 0 -77 5 -80 10 -6 9 -153 22 -456 42 -88 6 -185
12 -215 14 -281 21 -348 26 -367 31 -13 3 -93 8 -180 10 -99 4 -162 10 -171
17 -8 7 -28 13 -46 14 -17 1 -67 10 -111 19 -44 10 -105 19 -135 21 -30 2 -73
8 -95 14 -22 5 -76 14 -120 19 -44 6 -134 24 -200 41 -170 45 -240 60 -320 70
-39 5 -91 16 -115 25 -25 9 -126 37 -225 62 -99 25 -188 49 -197 54 -10 5 -24
6 -33 3 -8 -3 -15 -2 -15 3 0 21 225 107 340 129 144 28 418 61 585 70 133 7
198 17 590 98 345 70 455 89 751 126 291 36 961 134 1002 146 9 3 12 158 12
734 0 713 0 730 -19 730 -11 0 -22 -6 -25 -12 -5 -10 -7 -10 -12 0 -7 14 -44
16 -44 2z m56 -87 c-10 -10 -19 5 -10 18 6 11 8 11 12 0 2 -7 1 -15 -2 -18z
m-941 -313 c3 -5 1 -10 -4 -10 -6 0 -11 5 -11 10 0 6 2 10 4 10 3 0 8 -4 11
-10z m-45 -60 c11 -7 7 -10 -17 -10 -18 0 -33 5 -33 10 0 13 30 13 50 0z m-53
-36 c-3 -3 -12 -4 -19 -1 -8 3 -5 6 6 6 11 1 17 -2 13 -5z m50 0 c-3 -3 -12
-4 -19 -1 -8 3 -5 6 6 6 11 1 17 -2 13 -5z m-167 -44 c9 -6 10 -10 3 -10 -6 0
-18 -3 -27 -6 -11 -4 -16 -1 -16 10 0 18 17 21 40 6z m-680 -320 c0 -11 -7
-20 -15 -20 -27 0 -18 30 13 39 1 1 2 -8 2 -19z m-16 -90 c-21 -8 -37 -3 -29
10 3 4 15 6 27 2 21 -5 21 -6 2 -12z m-497 -186 c-3 -3 -12 -4 -19 -1 -8 3 -5
6 6 6 11 1 17 -2 13 -5z m-677 -64 c0 -5 -4 -10 -10 -10 -5 0 -10 5 -10 10 0
6 5 10 10 10 6 0 10 -4 10 -10z m-910 -400 c0 -5 -5 -10 -11 -10 -5 0 -7 5 -4
10 3 6 8 10 11 10 2 0 4 -4 4 -10z m-990 -530 c0 -5 -4 -10 -10 -10 -5 0 -10
5 -10 10 0 6 5 10 10 10 6 0 10 -4 10 -10z m40 0 c0 -5 -4 -10 -10 -10 -5 0
-10 5 -10 10 0 6 5 10 10 10 6 0 10 -4 10 -10z m-783 -32 c-3 -7 -5 -2 -5 12
0 14 2 19 5 13 2 -7 2 -19 0 -25z m-1037 -31 c0 -5 -4 -5 -10 -2 -5 3 -10 14
-10 23 0 15 2 15 10 2 5 -8 10 -19 10 -23z m27 1 c-3 -8 -6 -5 -6 6 -1 11 2
17 5 13 3 -3 4 -12 1 -19z m1113 -87 c0 -11 -5 -23 -10 -26 -6 -4 -10 -12 -9
-18 3 -28 -4 -32 -54 -31 -68 1 -74 2 -62 12 6 4 16 19 24 35 19 36 34 35 26
-3 -9 -41 18 -41 35 1 10 22 15 27 21 17 6 -9 9 -6 9 10 0 12 5 22 10 22 6 0
10 -9 10 -19z m412 4 c0 -5 -5 -11 -11 -13 -6 -2 -11 4 -11 13 0 9 5 15 11 13
6 -2 11 -8 11 -13z m-842 -15 c0 -17 -7 -20 -40 -20 -50 0 -52 13 -2 27 20 6
38 11 40 12 1 0 2 -8 2 -19z m800 -28 c0 -13 -4 -21 -9 -18 -10 7 -20 53 -13
61 9 8 22 -18 22 -43z m-621 8 c4 0 12 5 18 11 9 9 11 5 9 -15 -1 -14 -5 -29
-9 -32 -11 -11 -37 24 -36 48 1 17 3 18 6 6 2 -10 8 -18 12 -18z m289 -19
c-13 -43 -35 -51 -30 -11 2 21 32 62 40 55 2 -1 -3 -21 -10 -44z m292 24 c0
-14 -4 -25 -10 -25 -11 0 -14 33 -3 43 11 11 13 8 13 -18z m-502 -17 c-2 -17
-8 -33 -14 -35 -7 -2 -10 6 -9 19 1 13 3 29 4 36 0 6 6 12 12 12 6 0 9 -14 7
-32z m282 0 c28 -46 25 -53 -20 -53 -44 0 -49 11 -27 58 16 35 23 34 47 -5z
m185 -8 c-2 -18 -30 -25 -40 -11 -3 6 -1 11 4 11 6 0 11 9 11 20 0 17 2 19 14
8 7 -7 13 -20 11 -28z m-113 -13 c4 -1 16 5 26 14 18 15 20 15 31 -3 19 -30 5
-75 -26 -83 -32 -8 -43 3 -20 19 26 20 21 28 -13 21 -37 -8 -49 13 -30 53 l13
27 6 -23 c3 -13 9 -24 13 -25z m-472 23 c0 -5 -4 -10 -10 -10 -5 0 -10 5 -10
10 0 6 5 10 10 10 6 0 10 -4 10 -10z m770 -40 c0 -5 -7 -10 -15 -10 -8 0 -15
5 -15 10 0 6 7 10 15 10 8 0 15 -4 15 -10z m-76 -6 c25 -9 19 -24 -9 -24 -16
0 -25 6 -25 15 0 16 9 19 34 9z m-51 -18 c32 -24 21 -46 -23 -46 -44 0 -55 22
-22 46 21 16 23 16 45 0z m121 -23 c-18 -3 -22 -11 -22 -43 -1 -38 0 -39 21
-27 12 7 26 18 30 25 12 18 21 15 35 -15 15 -34 1 -53 -28 -35 -30 19 -50 15
-51 -10 -2 -22 -2 -22 -6 -2 -6 29 -43 44 -111 45 l-57 0 55 20 c30 11 69 26
85 34 17 8 39 13 50 13 18 -1 18 -1 -1 -5z m-44 -98 c0 -8 -4 -15 -10 -15 -5
0 -10 7 -10 15 0 8 5 15 10 15 6 0 10 -7 10 -15z"/>
<path d="M14335 3730 c-3 -6 5 -10 19 -10 14 0 28 5 31 10 3 6 -5 10 -19 10
-14 0 -28 -4 -31 -10z"/>
<path d="M14545 3691 c-3 -5 -1 -12 5 -16 5 -3 10 1 10 9 0 18 -6 21 -15 7z"/>
<path d="M14328 3683 c6 -2 12 -13 12 -24 0 -10 7 -19 15 -19 9 0 15 9 15 25
0 21 -5 25 -27 24 -16 0 -22 -3 -15 -6z"/>
<path d="M14560 3649 c0 -5 5 -7 10 -4 6 3 10 8 10 11 0 2 -4 4 -10 4 -5 0
-10 -5 -10 -11z"/>
<path d="M13980 3591 c0 -19 27 -31 51 -22 24 10 24 10 -3 10 -16 1 -28 6 -28
11 0 6 -4 10 -10 10 -5 0 -10 -4 -10 -9z"/>
<path d="M14187 3544 c-13 -13 -7 -24 14 -24 11 0 19 5 17 12 -5 14 -22 21
-31 12z"/>
<path d="M13705 3450 c-3 -5 1 -10 10 -10 9 0 13 5 10 10 -3 6 -8 10 -10 10
-2 0 -7 -4 -10 -10z"/>
<path d="M13840 3440 c0 -11 5 -20 10 -20 6 0 10 5 10 10 0 6 7 10 16 10 8 0
12 5 9 10 -12 19 -45 11 -45 -10z"/>
<path d="M13716 3344 c-4 -10 -14 -14 -25 -11 -20 5 -38 -20 -25 -32 4 -3 9
-1 11 5 5 14 43 6 43 -8 0 -22 18 4 22 32 5 32 -15 43 -26 14z"/>
<path d="M13635 3280 c4 -6 11 -8 16 -5 14 9 11 15 -7 15 -8 0 -12 -5 -9 -10z"/>
<path d="M13685 3269 c-11 -17 1 -21 15 -4 8 9 8 15 2 15 -6 0 -14 -5 -17 -11z"/>
<path d="M13384 3228 c-8 -13 16 -19 36 -8 11 6 20 13 20 15 0 7 -51 1 -56 -7z"/>
<path d="M13405 3180 c-3 -5 -1 -10 4 -10 6 0 11 5 11 10 0 6 -2 10 -4 10 -3
0 -8 -4 -11 -10z"/>
<path d="M8298 3125 c9 -50 107 -110 204 -126 49 -8 66 -7 99 8 43 19 54 38
13 22 -15 -5 -27 -8 -28 -7 -14 35 -26 43 -61 40 -34 -4 -55 2 -152 44 -17 8
-35 14 -41 14 -5 0 -12 7 -16 15 -9 25 -24 17 -18 -10z"/>
<path d="M13150 3111 c0 -6 5 -13 10 -16 6 -3 10 1 10 9 0 9 -4 16 -10 16 -5
0 -10 -4 -10 -9z"/>
<path d="M13233 3063 c9 -2 23 -2 30 0 6 3 -1 5 -18 5 -16 0 -22 -2 -12 -5z"/>
<path d="M8275 3010 c4 -6 9 -26 11 -45 6 -52 33 -113 52 -118 14 -4 14 -5 -2
-6 -15 -1 -16 -4 -6 -16 7 -8 19 -15 26 -15 8 0 14 -4 14 -8 0 -18 144 -104
305 -181 94 -45 188 -92 210 -103 49 -26 242 -145 272 -168 12 -10 33 -16 45
-15 13 1 61 3 108 4 l86 1 71 88 c40 48 78 96 86 106 10 13 21 17 36 13 18 -4
27 1 43 29 11 19 24 34 29 34 5 0 27 -10 50 -23 40 -23 44 -23 88 -9 25 9 53
17 61 19 11 3 9 8 -9 22 l-23 18 26 20 c17 14 24 27 20 37 -8 20 -34 21 -34 1
0 -22 -27 -18 -33 4 -3 15 1 21 17 23 17 2 21 10 22 40 1 21 -2 35 -7 33 -4
-3 -6 11 -5 30 l3 35 -35 -6 c-31 -6 -34 -5 -28 11 5 15 2 16 -28 11 -33 -6
-60 7 -34 17 7 2 10 8 6 12 -4 4 -14 2 -23 -5 -21 -18 -65 -4 -65 20 0 11 -4
20 -10 20 -5 0 -10 -4 -10 -10 0 -5 -5 -10 -11 -10 -5 0 -9 10 -7 22 2 15 -3
24 -14 26 -12 2 -18 -3 -18 -15 -1 -17 -1 -17 -14 0 -15 20 -92 32 -101 16 -4
-5 -12 -9 -18 -9 -7 0 -6 4 3 10 28 17 -1 24 -30 6 -17 -9 -34 -15 -39 -12 -5
3 -12 -1 -15 -10 -5 -13 -9 -14 -21 -4 -9 8 -15 8 -15 2 0 -6 -13 -13 -29 -17
-20 -4 -33 -15 -40 -33 -6 -17 -10 -21 -10 -9 -1 26 -31 21 -32 -5 0 -22 -1
-22 -9 -3 -6 15 -9 8 -10 -30 -2 -51 -4 -49 -15 18 -3 22 -10 35 -16 31 -6 -3
-8 -13 -5 -21 3 -8 2 -12 -3 -8 -5 3 -12 -1 -14 -7 -3 -7 -6 -1 -6 15 -1 37
-15 34 -31 -8 -15 -39 -33 -28 -25 15 6 28 -20 -42 -29 -80 -3 -14 -15 -36
-27 -50 l-21 -25 6 25 c4 14 13 50 21 80 7 30 16 75 19 100 l6 45 -28 -56
c-25 -48 -46 -104 -69 -179 -4 -11 -8 -8 -16 10 -9 23 -10 23 -14 5 -3 -11
-14 -28 -26 -37 -20 -15 -20 -17 -4 -24 9 -3 26 -4 37 -1 11 3 20 1 20 -4 0
-18 -31 -21 -76 -9 -25 7 -60 13 -77 12 -17 0 -37 4 -44 9 -7 6 -17 8 -22 5
-5 -4 -12 -2 -16 4 -3 5 -13 10 -22 10 -22 0 -164 70 -188 93 -11 10 -36 28
-55 40 -38 23 -85 69 -126 123 -24 30 -55 50 -39 24z m922 -232 c-3 -8 -6 -5
-6 6 -1 11 2 17 5 13 3 -3 4 -12 1 -19z m456 -52 c4 -10 1 -13 -8 -9 -8 3 -12
9 -9 14 7 12 11 11 17 -5z m47 -10 c0 -8 -7 -16 -15 -20 -8 -3 -15 -1 -15 4 0
6 5 10 11 10 5 0 7 5 4 10 -3 6 -1 10 4 10 6 0 11 -6 11 -14z m-60 -69 c0 -13
-11 -33 -23 -46 -20 -18 -29 -20 -50 -12 -46 18 -43 38 8 65 44 23 65 20 65
-7z"/>
<path d="M8939 2993 c-6 -16 -13 -41 -16 -58 -5 -28 -4 -29 10 -10 12 17 29
95 20 95 -2 0 -8 -12 -14 -27z"/>
<path d="M9850 2770 c0 -5 7 -10 16 -10 8 0 12 5 9 10 -3 6 -10 10 -16 10 -5
0 -9 -4 -9 -10z"/>
<path d="M12425 2690 c-4 -6 7 -10 24 -10 17 0 31 5 31 10 0 6 -11 10 -24 10
-14 0 -28 -4 -31 -10z"/>
<path d="M12572 2688 c7 -19 43 -21 58 -3 11 13 8 15 -25 15 -25 0 -35 -4 -33
-12z"/>
<path d="M12156 2675 c-9 -26 -7 -32 5 -12 6 10 9 21 6 23 -2 3 -7 -2 -11 -11z"/>
<path d="M12240 2660 c0 -5 5 -10 10 -10 6 0 10 5 10 10 0 6 -4 10 -10 10 -5
0 -10 -4 -10 -10z"/>
<path d="M11898 2643 c7 -3 16 -2 19 1 4 3 -2 6 -13 5 -11 0 -14 -3 -6 -6z"/>
<path d="M11570 2581 c0 -12 5 -21 10 -21 6 0 10 6 10 14 0 8 -4 18 -10 21 -5
3 -10 -3 -10 -14z"/>
<path d="M11460 2530 c0 -5 5 -10 10 -10 6 0 10 5 10 10 0 6 -4 10 -10 10 -5
0 -10 -4 -10 -10z"/>
<path d="M10873 2195 c0 -27 2 -38 4 -22 2 15 2 37 0 50 -2 12 -4 0 -4 -28z"/>
<path d="M8720 2140 l-55 -18 53 -1 c40 -1 61 4 79 19 l26 20 -24 -1 c-13 -1
-49 -9 -79 -19z"/>
<path d="M8340 2030 c-13 -9 -13 -10 0 -10 8 0 22 5 30 10 13 9 13 10 0 10 -8
0 -22 -5 -30 -10z"/>
<path d="M7622 1780 c-8 -13 -8 -20 -2 -20 6 0 13 7 17 15 9 24 -1 27 -15 5z"/>
<path d="M9175 1650 c-7 -12 2 -30 16 -30 5 0 9 9 9 20 0 21 -15 27 -25 10z"/>
<path d="M9000 1629 c0 -6 -8 -9 -17 -7 -10 3 -31 -1 -48 -8 -16 -7 -23 -13
-15 -14 9 0 -1 -14 -25 -35 -22 -19 -34 -35 -26 -35 7 0 29 14 48 30 18 17 38
30 44 30 6 0 7 4 4 10 -3 6 1 7 10 4 8 -4 22 -1 30 6 17 14 20 30 5 30 -5 0
-10 -5 -10 -11z"/>
<path d="M9110 1610 c-10 -6 -11 -12 -5 -19 6 -6 14 -4 22 4 15 17 3 27 -17
15z"/>
<path d="M8360 1600 c8 -5 22 -9 30 -9 10 0 8 3 -5 9 -27 12 -43 12 -25 0z"/>
<path d="M8865 1601 c-3 -5 -1 -12 5 -16 5 -3 10 1 10 9 0 18 -6 21 -15 7z"/>
<path d="M7580 1590 c0 -5 5 -10 10 -10 6 0 10 5 10 10 0 6 -4 10 -10 10 -5 0
-10 -4 -10 -10z"/>
<path d="M8813 1565 c-7 -8 -13 -20 -13 -27 1 -8 5 -7 14 5 7 9 18 17 25 17 6
0 11 5 11 10 0 15 -23 12 -37 -5z"/>
<path d="M8995 1560 c-3 -5 1 -10 10 -10 9 0 13 5 10 10 -3 6 -8 10 -10 10 -2
0 -7 -4 -10 -10z"/>
<path d="M8755 1550 c-3 -5 -1 -10 4 -10 6 0 11 5 11 10 0 6 -2 10 -4 10 -3 0
-8 -4 -11 -10z"/>
<path d="M8695 1510 l-30 -8 33 -1 c17 0 32 4 32 9 0 6 -1 9 -2 9 -2 -1 -16
-5 -33 -9z"/>
</g>
</svg>
